# This file uses centimeters as units for non-parametric coordinates.

mtllib CaveOBJ.mtl
g default
v 698.516183 -0.356632 -9.643766
v 678.392345 11.320145 1.265620
v 697.406641 10.083293 -9.589817
v 668.014164 12.694101 -19.016113
v 684.840804 12.694101 -30.021668
v 684.840804 -0.257633 -30.021668
v 688.412718 -0.125954 4.550434
v 694.860042 -0.125954 0.869575
v 694.860042 5.603458 0.869575
v 688.412718 5.603458 4.550434
v 684.238955 -0.159436 3.937531
v 695.883534 -0.159436 -2.710543
v 695.883534 7.069139 -2.710543
v 684.238955 8.305992 3.937531
v 673.565663 12.694101 -5.852288
v 694.015438 12.694101 -17.527254
v 694.015438 -0.257633 -17.527254
v 664.839201 -0.257633 -18.602536
v 671.210739 12.415601 -4.507844
v 664.839201 11.585027 -18.602536
v 675.857164 10.737770 3.572975
v 681.337343 -0.159436 5.562525
v 681.337343 7.723617 5.562525
v 664.657531 -0.257633 -13.206154
v 668.365249 -0.257633 -2.976894
v 668.518273 11.235462 -3.064256
v 664.657531 10.194399 -13.206154
v 671.733079 -0.356632 2.798632
v 671.733079 9.347141 2.798632
v 675.717996 -1.291857 5.161282
v 675.717996 9.291206 5.161282
v 676.163567 15.562529 -7.662686
v 691.626832 15.672049 -18.093571
v 687.386469 14.144592 -26.497629
v 672.894609 15.595084 -17.482798
v 691.877615 -0.257633 -18.682123
v 688.252180 -0.257633 -27.148689
v 680.332275 14.271114 -2.614902
v 692.838128 15.133655 -9.754666
v 698.893116 4.701595 -9.858959
v 694.392392 6.017586 -17.742491
v 692.385991 7.460425 -18.756546
v 688.209769 6.720360 -27.048494
v 684.371335 6.017586 -30.843908
v 664.369733 6.017586 -19.424777
v 664.114978 6.017586 -12.896500
v 667.822819 6.017586 -2.667185
v 671.190539 5.018695 3.108310
v 675.717996 4.636871 5.161282
v 681.337343 3.659966 5.562525
v 684.238955 3.942131 3.937531
v 688.090385 2.649992 4.734456
v 695.182375 2.649992 0.685553
v 695.883534 3.342867 -2.710543
v 664.487727 10.100047 -25.465754
v 677.159065 10.100047 -32.699887
v 676.689570 6.017586 -33.522175
v 663.460140 2.205778 -25.153161
v 662.745586 2.205778 -24.745186
v 662.863672 8.990972 -24.538506
v 677.159065 -0.257633 -32.699887
v 663.674074 -0.257633 -25.001233
v 662.863672 -0.257633 -24.538506
v 671.389341 11.480167 -29.405876
v 675.681575 14.074221 -24.792624
v 678.764209 16.265411 -22.805022
v 683.730406 16.996243 -12.766965
v 687.312301 15.451498 -5.163341
v 688.073384 12.095017 -3.681891
v 689.937061 9.080864 0.684314
v 691.567678 6.983578 2.749211
v 691.587226 5.859479 2.738083
v 694.172121 1.990613 1.262284
v 693.941589 4.872558 1.393927
v 693.941589 -0.117208 1.393927
v 689.100578 1.990613 4.157698
v 689.331116 4.872558 4.026144
v 689.331116 -0.117208 4.026144
v 693.341736 1.996861 0.561647
v 693.217278 4.678656 0.632702
v 691.083478 5.507084 1.850873
v 693.111820 -0.070220 0.692940
v 689.045837 4.679576 3.014209
v 688.919456 1.996860 3.086424
v 689.149304 -0.070229 2.955171
v 693.033535 1.988499 -0.568225
v 692.846618 4.848881 -0.449969
v 690.525834 5.829066 0.878158
v 692.775450 -0.104081 -0.429066
v 688.300533 4.848564 2.145021
v 688.103564 1.988611 2.246146
v 688.354066 -0.104049 2.095136
v 693.039294 1.964279 -2.398857
v 692.587331 5.318909 -2.132738
v 689.734197 6.691863 -0.495678
v 692.792931 -0.227869 -2.258393
v 686.977715 5.316692 1.069929
v 686.524118 1.964523 1.320552
v 686.770156 -0.227594 1.179838
v 694.575977 1.964279 -7.419288
v 693.618031 7.374059 -6.864237
v 687.589959 8.747013 -3.414706
v 694.055963 -0.227869 -7.122595
v 681.773977 7.371843 -0.102344
v 680.820255 1.964523 0.433805
v 681.339841 -0.227594 0.136920
v 691.870354 1.964279 -13.950700
v 690.804521 7.374059 -13.334025
v 684.099776 8.747013 -9.498144
v 691.291935 -0.227869 -13.620601
v 677.631589 7.371843 -5.813465
v 676.571150 1.964523 -5.216422
v 677.149100 -0.227594 -5.546627
v 687.762666 1.964136 -20.215221
v 686.779045 7.373938 -19.466383
v 680.608341 8.747017 -14.767620
v 687.231624 -0.228001 -19.808494
v 674.655628 7.371964 -10.248290
v 673.682430 1.964662 -9.509479
v 674.215639 -0.227464 -9.911935
v 682.812025 1.964136 -24.947558
v 681.898809 7.373938 -24.238916
v 676.170107 8.747017 -19.792494
v 682.319046 -0.228001 -24.562593
v 670.643180 7.371964 -15.516248
v 669.739621 1.964662 -14.817227
v 670.234767 -0.227464 -15.197921
v 679.425399 1.964136 -28.536928
v 678.589588 6.764977 -27.872508
v 673.346916 8.138056 -23.703565
v 678.974307 -0.228001 -28.175846
v 668.288402 6.763003 -19.694739
v 667.461386 1.964662 -19.039386
v 668.569402 -0.227464 -19.770003
v 673.996573 1.964136 -31.338187
v 673.327854 5.649661 -30.920504
v 670.488828 7.022739 -29.074161
v 673.635553 -0.228001 -31.110453
v 665.085143 5.647687 -25.784109
v 664.423406 1.964662 -25.372870
v 664.786004 -0.227464 -25.596091
v 663.264117 -0.257633 -23.335272
v 663.074804 2.978438 -23.666728
v 663.264117 10.190833 -23.335272
v 664.977636 11.299907 -24.313592
v 672.259386 12.680027 -28.470760
v 679.858237 11.299907 -32.809023
v 679.388747 6.017586 -33.631302
v 679.858237 -0.257633 -32.809023
v 674.148771 -0.228001 -30.277316
v 674.486499 1.964136 -30.507175
v 673.860693 5.586988 -30.085504
v 670.923276 6.960066 -28.004099
v 666.146599 5.585013 -24.899616
v 665.527245 1.964662 -24.484386
v 665.977388 -0.227464 -24.772990
vt 0.625000 0.000000
vt 0.375000 0.250000
vt 0.625000 0.250000
vt 0.375000 0.500000
vt 0.625000 0.500000
vt 0.625000 0.750000
vt 0.875000 0.000000
vt 0.875000 0.250000
vt 0.125000 0.250000
vt 0.375000 0.000000
vt 0.625000 0.000000
vt 0.625000 0.250000
vt 0.375000 0.250000
vt 0.375000 0.000000
vt 0.625000 0.000000
vt 0.625000 0.250000
vt 0.375000 0.250000
vt 0.325000 0.250000
vt 0.375000 0.300000
vt 0.625000 0.300000
vt 0.675000 0.250000
vt 0.675000 0.000000
vt 0.125000 0.000000
vt 0.325000 0.250000
vt 0.125000 0.250000
vt 0.375000 0.000000
vt 0.375000 0.250000
vt 0.375000 0.250000
vt 0.125000 0.000000
vt 0.325000 0.000000
vt 0.325000 0.250000
vt 0.125000 0.250000
vt 0.375000 0.000000
vt 0.375000 0.000000
vt 0.375000 0.250000
vt 0.375000 0.250000
vt 0.625000 0.500000
vt 0.375000 0.500000
vt 0.375000 0.300000
vt 0.675000 0.250000
vt 0.675000 0.000000
vt 0.875000 0.000000
vt 0.875000 0.250000
vt 0.375000 0.250000
vt 0.625000 0.250000
vt 0.625000 0.300000
vt 0.625000 0.121127
vt 0.675000 0.121127
vt 0.675000 0.121127
vt 0.875000 0.121127
vt 0.625000 0.628873
vt 0.875000 0.121127
vt 0.125000 0.121127
vt 0.125000 0.121127
vt 0.125000 0.121127
vt 0.325000 0.121127
vt 0.375000 0.121127
vt 0.375000 0.121127
vt 0.375000 0.121127
vt 0.375000 0.121127
vt 0.375000 0.121127
vt 0.625000 0.121127
vt 0.625000 0.121127
vt 0.250000 0.375000
vt 0.625000 0.500000
vt 0.625000 0.628873
vt 0.125000 0.121127
vt 0.125000 0.250000
vt 0.625000 0.750000
vt 0.125000 0.000000
vt 0.125000 0.000000
vt 0.497336 0.500000
vt 0.497336 0.500000
vt 0.497336 0.500000
vt 0.497336 0.300000
vt 0.497336 0.250000
vt 0.497336 0.250000
vt 0.497337 0.250000
vt 0.497336 0.250000
vt 0.625000 0.121127
vt 0.625000 0.250000
vt 0.497336 0.250000
vt 0.625000 0.000000
vt 0.375000 0.250000
vt 0.375000 0.121127
vt 0.375000 0.000000
vt 0.000000 0.000000
vt 1.000000 0.000000
vt 1.000000 1.000000
vt 0.000000 1.000000
vt 0.000000 0.000000
vt 1.000000 0.000000
vt 1.000000 1.000000
vt 0.000000 1.000000
vt 0.000000 0.000000
vt 1.000000 0.000000
vt 1.000000 1.000000
vt 0.000000 1.000000
vt 0.000000 0.000000
vt 1.000000 0.000000
vt 1.000000 1.000000
vt 0.000000 1.000000
vt 0.000000 0.000000
vt 1.000000 0.000000
vt 1.000000 1.000000
vt 0.000000 1.000000
vt 0.000000 0.000000
vt 1.000000 0.000000
vt 1.000000 1.000000
vt 0.000000 1.000000
vt 0.000000 0.000000
vt 1.000000 0.000000
vt 1.000000 1.000000
vt 0.000000 1.000000
vt 0.000000 0.000000
vt 1.000000 0.000000
vt 1.000000 1.000000
vt 0.000000 1.000000
vt 0.000000 0.000000
vt 1.000000 0.000000
vt 1.000000 1.000000
vt 0.000000 1.000000
vt 0.000000 0.000000
vt 1.000000 0.000000
vt 1.000000 1.000000
vt 0.000000 1.000000
vt 0.000000 0.000000
vt 1.000000 0.000000
vt 1.000000 1.000000
vt 0.000000 1.000000
vt 0.000000 0.000000
vt 1.000000 0.000000
vt 1.000000 1.000000
vt 0.000000 1.000000
vt 0.000000 0.000000
vt 1.000000 0.000000
vt 1.000000 1.000000
vt 0.000000 1.000000
vt 0.000000 0.000000
vt 1.000000 0.000000
vt 1.000000 1.000000
vt 0.000000 1.000000
vt 0.000000 0.000000
vt 1.000000 0.000000
vt 1.000000 1.000000
vt 0.000000 1.000000
vt 0.000000 0.000000
vt 1.000000 0.000000
vt 1.000000 1.000000
vt 0.000000 1.000000
vt 0.000000 0.000000
vt 1.000000 0.000000
vt 1.000000 1.000000
vt 0.000000 1.000000
vt 0.000000 0.000000
vt 1.000000 0.000000
vt 1.000000 1.000000
vt 0.000000 1.000000
vt 0.000000 0.000000
vt 1.000000 0.000000
vt 1.000000 1.000000
vt 0.000000 1.000000
vt 0.000000 0.000000
vt 1.000000 0.000000
vt 1.000000 1.000000
vt 0.000000 1.000000
vt 0.000000 0.000000
vt 1.000000 0.000000
vt 1.000000 1.000000
vt 0.000000 1.000000
vt 0.000000 0.000000
vt 1.000000 0.000000
vt 1.000000 1.000000
vt 0.000000 1.000000
vt 0.000000 0.000000
vt 1.000000 0.000000
vt 1.000000 1.000000
vt 0.000000 1.000000
vt 0.000000 0.000000
vt 1.000000 0.000000
vt 1.000000 1.000000
vt 0.000000 1.000000
vt 0.000000 0.000000
vt 1.000000 0.000000
vt 1.000000 1.000000
vt 0.000000 1.000000
vt 0.000000 0.000000
vt 1.000000 0.000000
vt 1.000000 1.000000
vt 0.000000 1.000000
vt 0.000000 0.000000
vt 1.000000 0.000000
vt 1.000000 1.000000
vt 0.000000 1.000000
vt 0.000000 0.000000
vt 1.000000 0.000000
vt 1.000000 1.000000
vt 0.000000 1.000000
vt 0.000000 0.000000
vt 1.000000 0.000000
vt 1.000000 1.000000
vt 0.000000 1.000000
vt 0.000000 0.000000
vt 1.000000 0.000000
vt 1.000000 1.000000
vt 0.000000 1.000000
vt 0.000000 0.000000
vt 1.000000 0.000000
vt 1.000000 1.000000
vt 0.000000 1.000000
vt 0.000000 0.000000
vt 1.000000 0.000000
vt 1.000000 1.000000
vt 0.000000 1.000000
vt 0.000000 0.000000
vt 1.000000 0.000000
vt 1.000000 1.000000
vt 0.000000 1.000000
vt 0.000000 0.000000
vt 1.000000 0.000000
vt 1.000000 1.000000
vt 0.000000 1.000000
vt 0.000000 0.000000
vt 1.000000 0.000000
vt 1.000000 1.000000
vt 0.000000 1.000000
vt 0.000000 0.000000
vt 1.000000 0.000000
vt 1.000000 1.000000
vt 0.000000 1.000000
vt 0.000000 0.000000
vt 1.000000 0.000000
vt 1.000000 1.000000
vt 0.000000 1.000000
vt 0.000000 0.000000
vt 1.000000 0.000000
vt 1.000000 1.000000
vt 0.000000 1.000000
vt 0.000000 0.000000
vt 1.000000 0.000000
vt 1.000000 1.000000
vt 0.000000 1.000000
vt 0.000000 0.000000
vt 1.000000 0.000000
vt 1.000000 1.000000
vt 0.000000 1.000000
vt 0.000000 0.000000
vt 1.000000 0.000000
vt 1.000000 1.000000
vt 0.000000 1.000000
vt 0.000000 0.000000
vt 1.000000 0.000000
vt 1.000000 1.000000
vt 0.000000 1.000000
vt 0.000000 0.000000
vt 1.000000 0.000000
vt 1.000000 1.000000
vt 0.000000 1.000000
vt 0.000000 0.000000
vt 1.000000 0.000000
vt 1.000000 1.000000
vt 0.000000 1.000000
vt 0.000000 0.000000
vt 1.000000 0.000000
vt 1.000000 1.000000
vt 0.000000 1.000000
vt 0.000000 0.000000
vt 1.000000 0.000000
vt 1.000000 1.000000
vt 0.000000 1.000000
vt 0.000000 0.000000
vt 1.000000 0.000000
vt 1.000000 1.000000
vt 0.000000 1.000000
vt 0.000000 0.000000
vt 1.000000 0.000000
vt 1.000000 1.000000
vt 0.000000 1.000000
vt 0.000000 0.000000
vt 1.000000 0.000000
vt 0.500000 1.000000
vt 0.500000 1.000000
vt 0.000000 0.000000
vt 1.000000 0.000000
vt 0.500000 1.000000
vt 0.000000 0.000000
vt 1.000000 0.000000
vt 0.000000 1.000000
vt 0.000000 0.000000
vt 1.000000 0.000000
vt 0.500000 1.000000
vt 0.000000 0.000000
vt 1.000000 0.000000
vt 0.500000 1.000000
vt 0.000000 0.000000
vt 1.000000 0.000000
vt 1.000000 1.000000
vt 0.125000 0.000000
vt 0.125000 0.121127
vt 0.125000 0.250000
vt 0.224662 0.349662
vt 0.275338 0.400338
vt 0.497336 0.500000
vt 0.625000 0.500000
vt 0.625000 0.628873
vt 0.625000 0.750000
vt 0.000000 0.811763
vt 0.594118 0.811763
vt 0.405881 0.811763
vt 0.594118 0.811763
vt 0.405881 0.811763
vt 0.594118 0.811763
vt 0.405881 0.811763
vt 0.594118 0.811763
vt 0.405881 0.811763
vt 0.594118 0.811763
vt 0.405881 0.811763
vt 1.000000 0.811763
vn -0.060638 0.978406 -0.197599
vn 0.021480 0.999635 0.016365
vn 0.464184 0.856288 -0.226504
vn 0.512787 0.717691 -0.471136
vn 0.830872 0.061681 -0.553035
vn 0.847728 0.043539 -0.528642
vn -0.976640 0.005204 0.214819
vn -0.914155 0.017556 0.404985
vn -0.717340 0.595789 0.361190
vn -0.866640 0.461714 0.189092
vn 0.920855 -0.007646 0.389830
vn 0.943169 0.033135 0.330658
vn 0.720871 0.556970 0.412468
vn 0.770864 0.443420 0.457327
vn 0.337810 0.802697 0.491489
vn 0.404585 0.680313 0.611134
vn 0.221987 0.728353 0.648247
vn 0.158039 0.006093 0.987414
vn -0.059185 -0.009382 0.998203
vn 0.085747 0.337316 0.937478
vn 0.985162 0.042273 -0.166337
vn 0.880282 0.472328 0.044840
vn 0.390049 0.703111 0.594556
vn -0.635784 0.426904 0.643064
vn -0.734057 -0.008562 0.679034
vn -0.267985 -0.002378 0.963420
vn -0.239772 0.267869 0.933143
vn 0.213271 0.893204 0.395856
vn 0.468454 0.852420 0.232230
vn 0.815776 0.046570 -0.576490
vn 0.803286 0.429077 -0.413067
vn -0.356943 0.901551 0.244534
vn -0.369484 0.929229 -0.003788
vn -0.650523 0.754112 0.090192
vn -0.271745 0.945412 0.179861
vn -0.542632 0.240493 -0.804807
vn -0.437504 0.000001 -0.899217
vn -0.883503 0.001077 -0.468424
vn -0.920891 0.089486 -0.379411
vn 0.123978 0.000000 0.992285
vn 0.167705 0.348187 0.922302
vn 0.053621 0.864886 0.499096
vn -0.060113 0.902562 0.426342
vn -0.992016 0.006614 0.125936
vn 0.347283 0.618336 -0.705022
vn -0.201966 0.923439 -0.326298
vn -0.287246 0.935211 0.207049
vn -0.341777 0.939776 -0.003007
vn 0.593610 0.012844 -0.804651
vn -0.046594 0.865866 0.498102
vn 0.981814 -0.065142 -0.178317
vn 0.786133 -0.071361 -0.613924
vn 0.847597 -0.032776 -0.529628
vn 0.846127 -0.023799 -0.532450
vn 0.585610 -0.046380 -0.809265
vn -0.426441 -0.061053 -0.902452
vn -0.984572 -0.062814 -0.163314
vn -0.993689 -0.062968 0.092832
vn -0.973915 -0.093478 0.206764
vn -0.912250 -0.101261 0.396921
vn -0.703558 -0.081504 0.705948
vn -0.268781 -0.023136 0.962923
vn 0.090558 0.000000 0.995891
vn 0.156625 -0.018851 0.987478
vn -0.066583 -0.029804 0.997336
vn 0.940977 -0.034501 0.336708
vn 0.923289 -0.036193 0.382397
vn -0.475592 0.332289 -0.814492
vn -0.206400 0.931663 -0.299003
vn 0.146824 0.684364 -0.714205
vn -0.345115 0.290585 -0.892444
vn 0.327802 -0.000118 -0.944746
vn -0.359149 0.042555 -0.932310
vn -0.951798 -0.011231 0.306520
vn -0.931650 0.315719 0.179862
vn -0.347127 0.917663 -0.193383
vn 0.333168 -0.097953 -0.937766
vn -0.239674 -0.127625 -0.962428
vn -0.949439 -0.027054 0.312783
vn 0.231273 -0.232447 0.944712
vn -0.052630 0.006996 0.998590
vn 0.463258 -0.354894 0.812060
vn -0.044018 0.067625 0.996739
vn 0.700174 -0.227505 0.676755
vn 0.886612 0.006866 0.462463
vn 0.880711 0.067612 0.468803
vn -0.702772 -0.561563 0.436758
vn -0.849833 0.016509 0.526793
vn 0.010070 -0.999811 0.016653
vn -0.837378 0.129708 0.531013
vn 0.742828 -0.545549 -0.388051
vn 0.885812 0.016209 -0.463761
vn 0.883058 0.129591 -0.451016
vn -0.846268 -0.532705 -0.007391
vn -0.992445 -0.001548 0.122679
vn -0.194674 -0.919385 -0.341808
vn -0.988138 0.122232 0.092966
vn 0.432220 -0.519377 -0.737179
vn 0.609716 -0.001383 -0.792619
vn 0.582553 0.122053 -0.803577
vn -0.809693 -0.493896 -0.316961
vn -0.975635 -0.033935 -0.216762
vn -0.286056 -0.826676 -0.484540
vn -0.969484 0.134524 -0.204950
vn 0.089397 -0.466692 -0.879890
vn 0.237986 -0.030612 -0.970786
vn 0.250085 0.125857 -0.960009
vn -0.634534 -0.767783 0.088746
vn -0.986173 -0.062094 0.153644
vn -0.080800 -0.985355 -0.150154
vn -0.968812 0.228410 0.096081
vn 0.396811 -0.746812 -0.533679
vn 0.596973 -0.059394 -0.800060
vn 0.530098 0.222344 -0.818266
vn -0.566378 -0.764239 0.308471
vn -0.878544 -0.072517 0.472125
vn -0.012341 -0.999923 0.001568
vn -0.845481 0.284260 0.452060
vn 0.510660 -0.782223 -0.356866
vn 0.813256 -0.070477 -0.577623
vn 0.780926 0.281652 -0.557518
vn -0.500700 -0.763426 0.408020
vn -0.771883 -0.073388 0.631515
vn -0.012209 -0.999831 0.013767
vn -0.738923 0.287309 0.609463
vn 0.488101 -0.798333 -0.352735
vn 0.811179 -0.071507 -0.580409
vn 0.779855 0.286285 -0.556657
vn -0.399289 -0.807697 0.433814
vn -0.705530 -0.070238 0.705190
vn 0.042073 -0.998340 0.039336
vn -0.682576 0.273330 0.677777
vn 0.535569 -0.780178 -0.323248
vn 0.839371 -0.048914 -0.541354
vn 0.803734 0.337042 -0.490322
vn -0.354345 -0.725310 0.590225
vn -0.576622 -0.064810 0.814436
vn 0.128096 -0.980669 0.147919
vn -0.542002 0.229473 0.808440
vn 0.634062 -0.751327 -0.182956
vn 0.913839 -0.006675 -0.406022
vn 0.841906 0.392516 -0.370303
vn -0.455603 -0.058435 0.888263
vn -0.277582 -0.674293 0.684308
vn -0.635388 -0.004635 -0.772179
vn -0.634921 -0.080407 -0.768381
vn 0.138469 -0.975078 0.173346
vn -0.503830 -0.101571 -0.857810
vn -0.464776 0.194617 0.863775
vn -0.590192 -0.086255 -0.802641
vn 0.659771 -0.724974 -0.197777
vn -0.328956 -0.144532 -0.933219
vn 0.894290 -0.001748 -0.447484
vn 0.110159 -0.034108 -0.993329
vn 0.815479 0.359308 -0.453754
vn 0.210532 0.117685 -0.970477
s 1
g Cave Area_3
usemtl lambert4SG
f 66/74/1 67/75/2 33/46/3 34/37/4
f 33/40/3 42/49/5 43/50/6 34/43/4
f 46/55/7 47/56/8 26/31/9 27/32/10
f 53/62/11 54/63/12 13/16/13 9/12/14
f 13/16/13 70/78/15 71/79/16 9/12/14
f 14/17/17 51/60/18 52/61/19 10/13/20
f 54/63/12 40/47/21 3/3/22 13/16/13
f 3/3/22 69/77/23 70/78/15 13/16/13
f 29/36/24 48/57/25 49/58/26 31/35/27
f 67/75/2 68/76/28 39/45/29 33/46/3
f 40/47/21 41/48/30 16/21/31 3/3/22
f 26/31/9 47/56/8 48/57/25 29/36/24
f 15/18/32 4/9/33 20/25/34 19/24/35
f 55/64/36 58/53/37 59/67/38 60/68/39
f 50/59/40 51/60/18 14/17/17 23/27/41
f 14/17/17 2/2/42 21/28/43 23/27/41
f 2/2/42 15/18/32 19/24/35 21/28/43
f 19/24/35 20/25/34 27/32/10 26/31/9
f 20/25/34 45/54/44 46/55/7 27/32/10
f 49/58/26 50/59/40 23/27/41 31/35/27
f 23/27/41 21/28/43 29/36/24 31/35/27
f 21/28/43 19/24/35 26/31/9 29/36/24
f 5/5/45 65/73/46 66/74/1 34/37/4
f 4/4/33 15/19/32 32/39/47 35/38/48
f 16/21/31 41/48/30 42/49/5 33/40/3
f 43/50/6 44/52/49 5/8/45 34/43/4
f 68/76/28 69/77/23 3/3/22 39/45/29
f 3/3/22 16/20/31 33/46/3 39/45/29
f 15/19/32 2/2/42 38/44/50 32/39/47
f 1/1/51 17/22/52 41/48/30 40/47/21
f 42/49/5 41/48/30 17/22/52 36/41/53
f 43/50/6 42/49/5 36/41/53 37/42/54
f 6/7/55 44/52/49 43/50/6 37/42/54
f 59/67/38 58/53/37 62/70/56 63/71/57
f 46/55/7 45/54/44 18/23/58 24/29/59
f 24/29/59 25/30/60 47/56/8 46/55/7
f 48/57/25 47/56/8 25/30/60 28/33/61
f 49/58/26 48/57/25 28/33/61 30/34/62
f 22/26/63 50/59/40 49/58/26 30/34/62
f 11/14/64 51/60/18 50/59/40 22/26/63
f 52/61/19 51/60/18 11/14/64 7/10/65
f 12/15/66 54/63/12 53/62/11 8/11/67
f 1/1/51 40/47/21 54/63/12 12/15/66
f 64/72/68 146/303/69 147/304/70 56/65/71
f 147/304/70 148/305/72 57/66/73 56/65/71
f 143/299/74 144/300/75 60/68/39 59/67/38
f 144/300/75 145/301/76 55/64/36 60/68/39
f 148/305/72 149/306/77 61/69/78 57/66/73
f 142/298/79 143/299/74 59/67/38 63/71/57
f 145/302/76 146/303/69 64/72/68 55/64/36
f 66/74/1 65/73/46 4/4/33 35/38/48
f 32/39/47 67/75/2 66/74/1 35/38/48
f 38/44/50 68/76/28 67/75/2 32/39/47
f 2/2/42 69/77/23 68/76/28 38/44/50
f 70/78/15 69/77/23 2/2/42 14/17/17
f 71/79/16 70/78/15 14/17/17 10/13/20
f 53/62/11 9/12/14 74/81/80 73/80/81
f 9/12/14 71/79/16 72/82/82 74/81/80
f 8/11/67 53/62/11 73/80/81 75/83/83
f 71/79/16 10/13/20 77/84/84 72/82/82
f 10/13/20 52/61/19 76/85/85 77/84/84
f 52/61/19 7/10/65 78/86/86 76/85/85
f 73/87/81 74/88/80 80/89/87 79/90/88
f 74/91/80 72/92/82 81/93/89 80/94/87
f 75/95/83 73/96/81 79/97/88 82/98/90
f 72/99/82 77/100/84 83/101/91 81/102/89
f 77/103/84 76/104/85 84/105/92 83/106/91
f 76/107/85 78/108/86 85/109/93 84/110/92
f 79/111/88 80/112/87 87/113/94 86/114/95
f 80/115/87 81/116/89 88/117/96 87/118/94
f 82/119/90 79/120/88 86/121/95 89/122/97
f 81/123/89 83/124/91 90/125/98 88/126/96
f 83/127/91 84/128/92 91/129/99 90/130/98
f 84/131/92 85/132/93 92/133/100 91/134/99
f 86/135/95 87/136/94 94/137/101 93/138/102
f 87/139/94 88/140/96 95/141/103 94/142/101
f 89/143/97 86/144/95 93/145/102 96/146/104
f 88/147/96 90/148/98 97/149/105 95/150/103
f 90/151/98 91/152/99 98/153/106 97/154/105
f 91/155/99 92/156/100 99/157/107 98/158/106
f 93/159/102 94/160/101 101/161/108 100/162/109
f 94/163/101 95/164/103 102/165/110 101/166/108
f 96/167/104 93/168/102 100/169/109 103/170/111
f 95/171/103 97/172/105 104/173/112 102/174/110
f 97/175/105 98/176/106 105/177/113 104/178/112
f 98/179/106 99/180/107 106/181/114 105/182/113
f 100/183/109 101/184/108 108/185/115 107/186/116
f 101/187/108 102/188/110 109/189/117 108/190/115
f 103/191/111 100/192/109 107/193/116 110/194/118
f 102/195/110 104/196/112 111/197/119 109/198/117
f 104/199/112 105/200/113 112/201/120 111/202/119
f 105/203/113 106/204/114 113/205/121 112/206/120
f 107/207/116 108/208/115 115/209/122 114/210/123
f 108/211/115 109/212/117 116/213/124 115/214/122
f 110/215/118 107/216/116 114/217/123 117/218/125
f 109/219/117 111/220/119 118/221/126 116/222/124
f 111/223/119 112/224/120 119/225/127 118/226/126
f 112/227/120 113/228/121 120/229/128 119/230/127
f 114/231/123 115/232/122 122/233/129 121/234/130
f 115/235/122 116/236/124 123/237/131 122/238/129
f 117/239/125 114/240/123 121/241/130 124/242/132
f 116/243/124 118/244/126 125/245/133 123/246/131
f 118/247/126 119/248/127 126/249/134 125/250/133
f 119/251/127 120/252/128 127/253/135 126/254/134
f 121/255/130 122/256/129 129/257/136 128/258/137
f 122/259/129 123/260/131 130/261/138 129/262/136
f 124/263/132 121/264/130 128/265/137 131/266/139
f 123/267/131 125/268/133 132/269/140 130/270/138
f 125/271/133 126/272/134 133/273/141 132/274/140
f 126/275/134 127/276/135 134/277/142 133/278/141
f 151/309/143 152/310/144 136/281/145 135/282/146
f 152/311/144 153/312/147 137/285/148 136/281/145
f 150/307/149 151/308/143 135/282/146 138/288/150
f 153/313/147 154/314/151 139/291/152 137/285/148
f 154/315/151 155/316/153 140/294/154 139/291/152
f 155/317/153 156/318/155 141/297/156 140/294/154
f 55/64/36 64/72/68 137/285/148 139/291/152
f 64/72/68 56/65/71 136/281/145 137/285/148
f 56/65/71 57/66/73 135/282/146 136/281/145
f 58/53/37 55/64/36 139/291/152 140/294/154
f 62/70/56 58/53/37 140/294/154 141/297/156
f 57/66/73 61/69/78 138/288/150 135/282/146
f 18/23/58 45/54/44 143/299/74 142/298/79
f 45/54/44 20/25/34 144/300/75 143/299/74
f 20/25/34 4/9/33 145/301/76 144/300/75
f 4/4/33 65/73/46 146/303/69 145/302/76
f 147/304/70 146/303/69 65/73/46 5/5/45
f 5/5/45 44/51/49 148/305/72 147/304/70
f 44/51/49 6/6/55 149/306/77 148/305/72
f 131/286/139 128/287/137 151/308/143 150/307/149
f 128/279/137 129/280/136 152/310/144 151/309/143
f 129/283/136 130/284/138 153/312/147 152/311/144
f 130/289/138 132/290/140 154/314/151 153/313/147
f 132/292/140 133/293/141 155/316/153 154/315/151
f 133/295/141 134/296/142 156/318/155 155/317/153
